<?xml version="1.0" encoding="UTF-8" standalone="no"?><!DOCTYPE svg PUBLIC "-//W3C//DTD SVG 1.1//EN" "http://www.w3.org/Graphics/SVG/1.1/DTD/svg11.dtd"><svg width="100%" height="100%" viewBox="0 0 558 562" version="1.1" xmlns="http://www.w3.org/2000/svg" xmlns:xlink="http://www.w3.org/1999/xlink" xml:space="preserve" xmlns:serif="http://www.serif.com/" style="fill-rule:evenodd;clip-rule:evenodd;stroke-linejoin:round;stroke-miterlimit:2;"><path d="M0.001,0l278.794,111.519l268.931,-107.573c3.683,-1.476 7.87,0.32 9.342,4.003c0.37,0.915 0.531,1.864 0.516,2.794l0,439.305l-276.12,110.449c-0.877,0.351 -1.784,0.516 -2.669,0.512c-0.893,0.004 -1.796,-0.161 -2.67,-0.512l-271.605,-108.642c-2.851,-1.141 -4.572,-3.908 -4.519,-6.808l0,-445.047Zm542.267,440.693c-0.549,-139.383 0.943,-419.463 0.943,-419.463l-261.747,104.699c-0.877,0.354 -1.784,0.516 -2.669,0.516c-0.893,-0 -1.796,-0.162 -2.67,-0.516l-261.751,-104.699l0,419.088l264.421,105.765l263.473,-105.39Zm-270.658,85.971l0,-380.247l14.373,0l-0,380.247l-14.373,0Z" style="fill:#0c1014;"/></svg>